<?xml version="1.0" encoding="UTF-8"?>
<svg id="Layer_2" data-name="Layer 2" xmlns="http://www.w3.org/2000/svg" xmlns:xlink="http://www.w3.org/1999/xlink" viewBox="0 0 519.66 581.12">
  <defs>
    <style>
      .cls-1 {
        fill: url(#linear-gradient);
      }

      .cls-1, .cls-2, .cls-3, .cls-4, .cls-5, .cls-6, .cls-7, .cls-8 {
        stroke-width: 0px;
      }

      .cls-2 {
        fill: #0a1a39;
      }

      .cls-3 {
        fill: url(#linear-gradient-5);
      }

      .cls-4 {
        fill: url(#linear-gradient-3);
      }

      .cls-9 {
        fill: url(#linear-gradient-2);
        stroke: #d2d8e6;
        stroke-width: 4px;
      }

      .cls-9, .cls-10 {
        stroke-miterlimit: 10;
      }

      .cls-5 {
        fill: #fffefe;
      }

      .cls-6 {
        fill: #fff;
      }

      .cls-10 {
        fill: none;
        stroke: #436cb4;
        stroke-width: 3px;
      }

      .cls-7 {
        fill: url(#linear-gradient-4);
      }

      .cls-8 {
        fill: #8ca0be;
      }
    </style>
    <linearGradient id="linear-gradient" x1="380.66" y1="402.3" x2="-12.27" y2="68.27" gradientUnits="userSpaceOnUse">
      <stop offset="0" stop-color="#3350a3"/>
      <stop offset="1" stop-color="#436cb4"/>
    </linearGradient>
    <linearGradient id="linear-gradient-2" x1="301.17" y1="264.79" x2="290.81" y2="670.88" gradientUnits="userSpaceOnUse">
      <stop offset=".38" stop-color="#ecedf2"/>
      <stop offset=".62" stop-color="#fcfdfd"/>
    </linearGradient>
    <linearGradient id="linear-gradient-3" x1="444.8" y1="256.76" x2="444.8" y2="83.96" gradientUnits="userSpaceOnUse">
      <stop offset=".03" stop-color="#24bbb2"/>
      <stop offset="1" stop-color="#5ec7cf"/>
    </linearGradient>
    <linearGradient id="linear-gradient-4" x1="413.72" y1="235.16" x2="413.72" y2="105.69" xlink:href="#linear-gradient-3"/>
    <linearGradient id="linear-gradient-5" x1="382.57" y1="213.6" x2="382.57" y2="127.21" xlink:href="#linear-gradient-3"/>
  </defs>
  <g id="Layer_1-2" data-name="Layer 1">
    <path class="cls-1" d="M124.95,430.76h278.1s103.56-25.77,112.67-109.64V121.55c0-42.24-32.81-81.81-67.52-101.6C412.43-.45,375.04,0,335.16,0H120.96C90.87,0,59.74,19.07,39.15,39.89,18.58,60.68,4.97,87.46,0,116.2v333.53s0,41.33,34.03,78.76c34.03,37.44,33.7,42.42,35.89,52.63,0,0,4.95-123.13,55.03-150.36"/>
    <path class="cls-6" d="M304.64,155.42c0,18.43.27,36.85,0,55.27-.31,4.3-1.06,8.53-2.24,12.69s-2.79,8.18-4.79,12.06c-2.02,3.88-4.42,7.57-7.19,11.05s-5.89,6.68-9.33,9.61c-3.42,2.94-7.14,5.57-11.11,7.87-3.99,2.28-8.16,4.23-12.55,5.81-4.36,1.58-8.87,2.79-13.5,3.58-4.62.8-9.28,1.2-13.98,1.2s-9.38-.41-14-1.2c-4.62-.8-9.12-2-13.5-3.58s-8.56-3.52-12.53-5.81c-3.99-2.3-7.68-4.93-11.12-7.87-3.44-2.93-6.54-6.13-9.33-9.61-2.77-3.47-5.17-7.17-7.17-11.05-2.02-3.88-3.63-7.9-4.81-12.06s-1.93-8.39-2.24-12.69c-.39-37.04-.39-74.19,0-111.43.1-3.58.51-7.14,1.23-10.67.7-3.52,1.71-6.98,3.03-10.36,1.3-3.38,2.89-6.65,4.76-9.8,1.88-3.15,4-6.15,6.38-9,2.4-2.85,5.01-5.51,7.86-7.98s5.89-4.73,9.11-6.76c3.23-2.03,6.62-3.82,10.17-5.37s7.19-2.83,10.95-3.85c3.77-1.03,7.58-1.78,11.48-2.25,3.89-.47,7.79-.66,11.71-.58,3.94.09,7.82.45,11.69,1.11,3.85.64,7.63,1.56,11.33,2.75,3.71,1.19,7.29,2.64,10.73,4.35,3.46,1.71,6.74,3.65,9.86,5.82,3.13,2.18,6.04,4.55,8.75,7.15s5.17,5.37,7.41,8.32c4.24,5.56,7.48,11.56,9.69,18.01,2.22,6.46,3.32,13.08,3.32,19.86,0,18.56-.05,36.98-.05,55.4Z"/>
    <path class="cls-5" d="M69.7,540.66c3.31-49.25,17.22-97.9,48.04-135.88,9.9-12.2,21.74-23.33,36.29-29.26,18.51-7.55,39.31-5.94,59.22-4.21.02-13.74.04-27.48.06-41.22-33.61-2.34-64.73-22.41-83.89-50.13s-26.94-62.35-25.38-96c.4-8.59,4.04-19.68,12.63-19.41,5.11.16,9.12,4.88,10.36,9.85,1.25,4.96.43,10.17-.05,15.27-4.32,46.53,24.87,94.61,68.69,110.82s98.22-2.15,121.98-42.38c13.55-22.94,17.18-50.5,16.48-77.14-.11-4.06-.27-8.31,1.46-11.99s6.06-6.5,9.86-5.07c3.53,1.32,5.01,5.44,5.91,9.1,8.44,34.57,1.79,72.55-17.9,102.19s-52.12,50.49-87.26,56.11c-.05,13.12-.1,26.24-.16,39.37,24.61-2.82,52.61-4.62,70.92,12.08,2.57,2.35,4.96,5.07,8.19,6.37,2.62,1.06,5.52,1.07,8.34,1.07,12.99,0,25.99-.01,38.98-.02,25.36-.01,51.42-.15,75.03-9.41,31.5-12.35,51.64-38.19,67.36-66.93-1.58,8.21-7.89,17.65-12.21,24.93-4.95,8.33-10.57,16.29-17,23.55-12.4,14.01-27.99,25.41-46.09,30.71-16.33,4.79-33.64,4.48-50.64,5.38-17.94.95-35.77,3.29-53.58,5.62-58.21,7.63-116.42,15.26-174.63,22.88-3.7.48-7.53,1.02-10.67,3.04-3.11,2.01-5.16,5.26-7.09,8.41-25.17,40.96-48.08,83.88-67.91,127.92-2.03,4.51-3.14,10.2-5.13,14.71-.46-12.72-1.09-27.51-.23-40.32Z"/>
    <path class="cls-9" d="M73.36,567.01c5-12.45,13.84-23.33,24.99-30.78,16.7-11.15,37.47-14.25,57.53-15.11,41.94-1.81,278.58,1.99,290.67,0,18.67-3.07,31.76-12.99,44.65-26.19,21.99-22.51,25.77-49.94,26.25-80.25.54-33.88.09-67.75-2.1-101.57.19,2.86-3.11,7.86-4.24,10.34-3.9,8.49-8.53,16.66-13.85,24.33-11.96,17.25-28.82,34.04-49.06,41.01-24.03,8.28-52.97,6.79-78.02,7.18-40.05.62-80.1,1.45-120.15,2.47-20.23.51-40.45,1.08-60.67,1.7-17.88.54-39.01-2.23-55.34,5.77l-.99.49c-26.66,13.69-40.28,44.7-47.75,72.08-7.82,28.65-8.96,59.18-11.95,88.6,0-.02.01-.04.02-.06Z"/>
    <g>
      <path class="cls-4" d="M421.33,98.91c21.81,18.91,34.45,44.63,34.5,71.42.04,26.77-12.51,52.53-34.28,71.49-2.51,2.16-3.94,3.7-4.33,4.59-3.03,6.8,5.63,13.18,12.88,9.02.68-.38,2.13-1.56,4.35-3.51,24.96-21.96,38.85-50.93,38.81-81.61-.04-30.7-14.05-59.63-39.07-81.54-2.22-1.96-3.67-3.11-4.35-3.51-7.28-4.12-15.92,2.26-12.88,9.06.42.89,1.87,2.43,4.38,4.59Z"/>
      <path class="cls-7" d="M395.05,119.95c15.39,13.31,24.16,31.87,24.19,50.46,0,18.59-8.73,37.17-24.12,50.5-1.98,1.71-3.14,2.96-3.5,3.74-2.62,5.77,3.03,11.81,10.16,10.27,2.07-.46,3.52-1.54,5.12-2.92,19.09-16.48,29.66-38.14,29.64-61.58-.02-23.45-10.6-45.11-29.71-61.55-1.63-1.4-3.06-2.49-5.12-2.92-7.12-1.56-12.8,4.5-10.16,10.27.35.78,1.52,2.03,3.5,3.74Z"/>
      <path class="cls-3" d="M369.04,141.48c8.53,7.76,13.46,17.92,13.46,28.93s-4.9,21.17-13.43,28.95c-1.8,1.63-2.88,2.85-3.23,3.59-2.73,5.98,3.23,12.17,10.55,10.33,1.47-.36,3.21-1.46,5.21-3.3,11.85-10.88,18.4-24.7,18.4-39.56s-6.57-28.69-18.43-39.56c-2.02-1.82-3.76-2.94-5.21-3.3-7.32-1.84-13.28,4.35-10.55,10.33.35.76,1.43,1.96,3.23,3.61Z"/>
    </g>
    <path class="cls-2" d="M291.58,131.58h-16.58v87.13l-12.38-8.51c-1.62-13.16-6.34-23.11-14.15-29.87-5.5,12.54-14.8,18.8-27.9,18.8-9.49,0-18.24-4.59-26.25-13.78s-14.01-24.62-18-46.29l7.52,2.55c4.15,14.92,9.41,25.4,15.77,31.44,6.36,6.04,13.53,9.06,21.51,9.06,6.04,0,10.84-1.76,14.4-5.28,3.56-3.52,5.34-7.8,5.34-12.85,0-4.31-1.24-7.83-3.72-10.55-2.48-2.72-5.29-4.08-8.41-4.08-.49,0-.92.03-1.29.09.97,1.99,1.46,4,1.46,6.04,0,3.86-1.25,6.92-3.76,9.19-2.51,2.27-5.62,3.4-9.34,3.4s-7.12-1.4-9.71-4.21c-2.59-2.81-3.88-6.25-3.88-10.34,0-3.69,1.01-6.83,3.03-9.44,2.02-2.61,4.35-4.4,7-5.36-3.88-4.77-7.87-7.15-11.97-7.15h-22.65l-5.82-9.7h113.96l5.82,9.7ZM260.76,131.58h-44.48l3.88,5.79c8.3,0,15.45,2.92,21.43,8.76,5.99,5.84,8.98,13.05,8.98,21.61,3.77,4.94,7.17,10.55,10.19,16.85v-53.01Z"/>
    <g>
      <path class="cls-8" d="M180.25,451.44h-7.01v35.72l-1.54-1.54c-.02-1.37-.18-2.71-.48-4.02-.3-1.31-.71-2.56-1.25-3.76-.54-1.2-1.2-2.31-1.98-3.33s-1.68-1.92-2.68-2.7c-1,2.6-2.39,4.46-4.17,5.59-1.78,1.13-3.79,1.69-6.05,1.69-1.82,0-3.5-.35-5.04-1.04-1.54-.69-2.95-1.63-4.22-2.8-1.28-1.17-2.42-2.55-3.44-4.13-1.01-1.58-1.91-3.26-2.7-5.04s-1.47-3.61-2.05-5.49c-.58-1.88-1.07-3.71-1.45-5.49l1.61.62c.96,3.4,2.1,6.28,3.42,8.66,1.32,2.38,2.73,4.32,4.22,5.81,1.49,1.49,3.02,2.58,4.58,3.26,1.56.68,3.06,1.03,4.49,1.03s2.78-.24,3.9-.74c1.12-.49,2.05-1.13,2.8-1.93.75-.8,1.32-1.7,1.69-2.7.38-1,.56-2,.56-3.01,0-.87-.15-1.7-.46-2.51s-.72-1.52-1.25-2.14c-.52-.62-1.14-1.11-1.85-1.49-.71-.38-1.47-.56-2.29-.56-.32,0-.65.03-.99.1.48.82.72,1.69.72,2.6,0,.55-.09,1.08-.27,1.59-.18.51-.46.96-.84,1.35-.38.39-.84.7-1.38.92-.55.23-1.17.34-1.88.34-.62,0-1.22-.12-1.81-.36-.59-.24-1.13-.57-1.61-1.01-.48-.43-.87-.95-1.16-1.55-.3-.6-.44-1.27-.44-2,0-.68.12-1.34.38-1.96.25-.63.59-1.2,1.01-1.73.42-.52.92-.99,1.49-1.38.57-.4,1.17-.71,1.81-.94-.34-.43-.73-.88-1.16-1.35-.43-.47-.88-.89-1.35-1.27-.47-.38-.93-.69-1.38-.94-.46-.25-.89-.38-1.3-.38h-11.28l-1.88-2.56h44.09l1.88,2.56ZM170.51,451.44h-18.01l2.22,3.73h.48c1.03,0,2.1.22,3.23.67,1.13.45,2.19,1.14,3.18,2.09s1.86,2.16,2.6,3.64c.74,1.48,1.25,3.25,1.52,5.3.52.64,1.01,1.32,1.47,2.03.46.72.88,1.44,1.26,2.15.39.72.75,1.41,1.09,2.07.34.66.66,1.26.96,1.81v-23.48Z"/>
      <path class="cls-8" d="M255.48,451.44h-6.84v35.85l-2.73-2.46v-27.58c0-.3-.15-.75-.44-1.37-.3-.62-.66-1.24-1.08-1.88-.42-.64-.88-1.21-1.37-1.71-.49-.5-.93-.79-1.32-.85h-4.99v35.72l-1.54-1.54c-.02-1.37-.18-2.71-.48-4.02-.3-1.31-.71-2.56-1.25-3.74-.54-1.18-1.2-2.29-1.98-3.32s-1.69-1.94-2.72-2.73c-1,2.6-2.39,4.46-4.17,5.59-1.78,1.13-3.79,1.69-6.05,1.69-1.82,0-3.5-.35-5.04-1.04-1.54-.69-2.95-1.63-4.22-2.8-1.28-1.17-2.42-2.55-3.44-4.13-1.01-1.58-1.91-3.26-2.7-5.04s-1.47-3.61-2.05-5.49c-.58-1.88-1.07-3.71-1.45-5.49l1.61.62c.96,3.4,2.1,6.28,3.42,8.66,1.32,2.38,2.73,4.32,4.22,5.81,1.49,1.49,3.02,2.58,4.58,3.26,1.56.68,3.06,1.03,4.49,1.03s2.78-.24,3.9-.74c1.12-.49,2.05-1.13,2.8-1.93.75-.8,1.32-1.7,1.69-2.7.38-1,.56-2,.56-3.01,0-.87-.15-1.7-.46-2.51s-.72-1.52-1.25-2.14c-.52-.62-1.14-1.11-1.85-1.49-.71-.38-1.47-.56-2.29-.56-.32,0-.65.03-.99.1.48.82.72,1.69.72,2.6,0,.55-.09,1.08-.27,1.59-.18.51-.46.96-.84,1.35-.38.39-.84.7-1.38.92-.55.23-1.17.34-1.88.34-.62,0-1.22-.12-1.81-.36-.59-.24-1.13-.57-1.61-1.01-.48-.43-.87-.95-1.16-1.55-.3-.6-.44-1.27-.44-2,0-.68.12-1.34.38-1.96.25-.63.59-1.2,1.01-1.73.42-.52.92-.99,1.49-1.38.57-.4,1.17-.71,1.81-.94-.34-.43-.73-.88-1.16-1.35-.43-.47-.88-.89-1.35-1.27-.47-.38-.93-.69-1.38-.94-.46-.25-.89-.38-1.3-.38h-11.28l-1.88-2.56h43.58c.64.16,1.17.38,1.61.65.43.27.83.62,1.18,1.04.35.42.71.94,1.06,1.56.35.62.77,1.34,1.25,2.19v-12.17c.46.34.8.66,1.03.94.23.29.41.65.55,1.09.14.44.26,1.03.38,1.76.11.73.28,1.71.51,2.94h4.92l1.71,2.56ZM233.98,451.44h-18.05l2.22,3.73h.48c1.03,0,2.1.22,3.23.67,1.13.45,2.19,1.14,3.18,2.09s1.86,2.16,2.6,3.64c.74,1.48,1.25,3.25,1.52,5.3.52.64,1.01,1.32,1.47,2.03.46.72.88,1.44,1.28,2.15.4.72.77,1.41,1.11,2.07.34.66.66,1.26.96,1.81v-23.48Z"/>
      <path class="cls-8" d="M300.25,445.83c0,.43-.06.92-.19,1.45-.13.54-.32,1.07-.6,1.59h7.14l1.88,2.56h-20.37l1.33,2.8c1.85,0,3.51.31,4.99.94,1.48.63,2.75,1.45,3.81,2.46s1.87,2.17,2.44,3.47c.57,1.3.85,2.63.85,4s-.22,2.59-.65,3.86c-.43,1.28-1.13,2.47-2.08,3.57s-2.2,2.1-3.74,2.99-3.41,1.61-5.62,2.15c3.24,2.14,6.07,4.24,8.51,6.31,2.44,2.06,4.61,4.12,6.53,6.17v2.32c-1.78-1.64-3.59-3.22-5.43-4.75s-3.7-2.89-5.55-4.08c-1.86-1.2-3.71-2.18-5.55-2.96-1.85-.77-3.66-1.23-5.43-1.37l-4.92-6.94c1.39.41,2.7.71,3.93.91s2.39.29,3.49.29c2.32,0,4.33-.35,6.02-1.06,1.69-.71,3.08-1.57,4.17-2.6s1.9-2.12,2.43-3.28c.52-1.16.79-2.21.79-3.14,0-1.94-.6-3.44-1.81-4.49-1.21-1.06-2.92-1.59-5.13-1.59-.23,0-.46,0-.68.02-.23.01-.47.03-.72.05.02.18.03.35.03.5v.5c0,1.16-.18,2.21-.53,3.14-.35.93-.81,1.73-1.38,2.38-.57.65-1.22,1.14-1.95,1.49-.73.34-1.46.51-2.19.51-.64,0-1.22-.11-1.74-.33-.52-.22-.98-.51-1.37-.87-.39-.36-.69-.79-.91-1.26-.22-.48-.32-.98-.32-1.5,0-.93.26-1.82.77-2.67.51-.84,1.15-1.6,1.91-2.27.76-.67,1.59-1.23,2.5-1.68.9-.44,1.74-.73,2.51-.87-.14-.43-.46-.92-.96-1.45-.5-.53-1.14-1.09-1.91-1.66h-9.54l-1.88-2.56h23.86c.39-.48.67-.95.84-1.42s.26-.86.26-1.18c0-.46-.15-.85-.46-1.2s-.72-.62-1.25-.84c-.52-.22-1.13-.38-1.83-.5-.7-.11-1.42-.17-2.17-.17-.55,0-1.26.03-2.15.08-.89.06-1.8.12-2.73.17-.93.06-1.85.11-2.73.17-.89.06-1.61.09-2.15.09-1,0-2.02-.17-3.04-.5-1.03-.33-1.95-.83-2.77-1.5-.82-.67-1.49-1.51-2.02-2.53-.52-1.01-.79-2.2-.79-3.57,0-.66.09-1.32.26-1.98.17-.66.32-1.29.46-1.88l1.88,1.06c-.18.48-.31.93-.38,1.35s-.1.81-.1,1.18c0,1.46.53,2.54,1.59,3.23,1.06.7,2.55,1.04,4.46,1.04,1.59,0,3.24-.09,4.94-.26,1.7-.17,3.34-.26,4.94-.26,2.69,0,4.73.56,6.14,1.69,1.4,1.13,2.1,2.68,2.1,4.67Z"/>
      <path class="cls-8" d="M356.96,445.83c0,.43-.06.92-.19,1.45-.13.54-.32,1.07-.6,1.59h6.53l1.88,2.56h-28.61l1.47,2.67c1.09.16,2.13.5,3.11,1.03.98.52,1.84,1.17,2.58,1.95.74.78,1.33,1.65,1.76,2.63.43.98.65,1.99.65,3.04v.34c0,.11-.01.23-.03.34.71-.8,1.43-1.58,2.17-2.34.74-.76,1.46-1.47,2.17-2.12.71-.65,1.38-1.23,2.02-1.74.64-.51,1.2-.92,1.67-1.21l6.8,3.96c-.82.68-1.6,1.54-2.34,2.56-.74,1.03-1.4,2.2-1.97,3.52-.57,1.32-1.02,2.78-1.35,4.38-.33,1.6-.5,3.32-.5,5.16,0,.68.05,1.55.14,2.6.09,1.05.21,2.13.34,3.25.14,1.12.3,2.2.48,3.25.18,1.05.38,1.89.58,2.53l-1.91-1.13c-.5-1.87-.9-3.57-1.2-5.11-.3-1.54-.52-2.95-.67-4.24-.15-1.29-.24-2.46-.27-3.52-.03-1.06-.05-2.06-.05-2.99,0-1.53.2-3.01.6-4.44.4-1.44.86-2.88,1.38-4.34-.5.16-1.09.56-1.78,1.2-.68.64-1.41,1.41-2.19,2.32-.77.91-1.58,1.9-2.41,2.96-.83,1.06-1.64,2.1-2.43,3.11s-1.53,1.95-2.22,2.82c-.7.87-1.29,1.54-1.79,2.02-.48.52-.94.92-1.38,1.2s-1.04.41-1.79.41c-.68,0-1.32-.27-1.9-.82s-1.11-1.21-1.59-1.98c-.48-.77-.92-1.59-1.32-2.46-.4-.87-.75-1.63-1.04-2.29l2.12-.62c.09.37.21.73.34,1.11.14.38.3.71.48,1.01.18.3.39.54.63.73.24.19.52.29.84.29.23,0,.56-.14,1.01-.41s.95-.64,1.5-1.11c.56-.47,1.13-1,1.71-1.59.58-.59,1.1-1.21,1.57-1.85.47-.64.85-1.27,1.16-1.9.31-.63.46-1.21.46-1.76,0-.68-.12-1.36-.36-2.03s-.57-1.27-.99-1.79c-.42-.52-.91-.95-1.47-1.28-.56-.33-1.16-.5-1.79-.5-.39,0-.76.07-1.13.21.25.37.43.74.55,1.13.11.39.17.78.17,1.16,0,.52-.1,1.03-.29,1.52-.19.49-.47.92-.84,1.3-.36.38-.79.67-1.28.89-.49.22-1.02.33-1.59.33s-1.14-.12-1.64-.36c-.5-.24-.94-.56-1.32-.96s-.67-.87-.87-1.4c-.21-.53-.31-1.1-.31-1.69,0-1.57.47-2.87,1.4-3.88.93-1.01,2.15-1.71,3.66-2.1-.66-1.05-1.3-1.8-1.93-2.26-.63-.46-1.36-.68-2.2-.68h-3.52l-1.88-2.56h27.72c.39-.48.67-.95.84-1.42s.26-.86.26-1.18c0-.46-.15-.85-.46-1.2s-.72-.62-1.25-.84c-.52-.22-1.13-.38-1.83-.5-.7-.11-1.42-.17-2.17-.17-.55,0-1.26.03-2.15.08-.89.06-1.8.12-2.73.17-.93.06-1.85.11-2.73.17-.89.06-1.61.09-2.15.09-1,0-2.02-.17-3.04-.5-1.03-.33-1.95-.83-2.77-1.5-.82-.67-1.49-1.51-2.02-2.53-.52-1.01-.79-2.2-.79-3.57,0-.66.09-1.32.26-1.98.17-.66.32-1.29.46-1.88l1.88,1.06c-.18.48-.31.93-.38,1.35s-.1.81-.1,1.18c0,1.46.53,2.54,1.59,3.23,1.06.7,2.55,1.04,4.46,1.04,1.59,0,3.24-.09,4.94-.26,1.7-.17,3.34-.26,4.94-.26,2.69,0,4.73.56,6.14,1.69,1.4,1.13,2.1,2.68,2.1,4.67Z"/>
      <path class="cls-8" d="M413.05,445.83c0,.43-.06.92-.19,1.45-.13.54-.32,1.07-.6,1.59h10.97l1.88,2.56h-22.87v14.29c0,.23.05.43.15.6.1.17.23.31.38.41.15.1.29.18.43.24.14.06.24.09.31.09.27,0,.79-.14,1.56-.41.76-.27,1.61-.69,2.53-1.25.92-.56,1.86-1.27,2.8-2.14.95-.87,1.75-1.89,2.41-3.08,1,.73,1.84,1.52,2.51,2.38.67.85,1.21,1.75,1.62,2.68.41.93.7,1.89.87,2.85s.26,1.93.26,2.89c0,2.35-.41,4.38-1.23,6.1-.82,1.72-1.87,3.15-3.14,4.29-1.28,1.14-2.69,1.99-4.26,2.56-1.56.57-3.07.87-4.53.89-1.89-.14-3.58-.49-5.08-1.06-1.49-.57-2.83-1.34-4.02-2.32-1.19-.98-2.24-2.15-3.16-3.52s-1.76-2.92-2.51-4.65c-.91-2.1-1.73-4.64-2.44-7.62-.72-2.98-1.24-6.5-1.56-10.56l1.74.99c.46,3.14,1.06,6.04,1.83,8.7.76,2.66,1.73,5.01,2.89,7.06,1.44,2.53,3.17,4.5,5.21,5.91,2.04,1.41,4.47,2.12,7.3,2.12,1.16,0,2.38-.19,3.66-.56,1.28-.38,2.44-.94,3.49-1.69,1.05-.75,1.91-1.67,2.6-2.77s1.03-2.36,1.03-3.79c0-.87-.19-1.71-.58-2.53-.39-.82-.93-1.49-1.64-2.02-.62.71-1.33,1.34-2.14,1.9-.81.56-1.64,1.04-2.5,1.44-.85.4-1.69.7-2.5.91-.81.21-1.52.31-2.14.31-.89,0-1.64-.23-2.26-.7s-1.12-1-1.52-1.61c-.4-.6-.68-1.2-.85-1.78-.17-.58-.26-1-.26-1.25v-14.29h-15.59l-1.88-2.56h27.72c.39-.48.67-.95.84-1.42s.26-.86.26-1.18c0-.46-.15-.85-.46-1.2s-.72-.62-1.25-.84c-.52-.22-1.13-.38-1.83-.5-.7-.11-1.42-.17-2.17-.17-.55,0-1.26.03-2.15.08-.89.06-1.8.12-2.73.17-.93.06-1.85.11-2.73.17-.89.06-1.61.09-2.15.09-1,0-2.02-.17-3.04-.5-1.03-.33-1.95-.83-2.77-1.5-.82-.67-1.49-1.51-2.02-2.53-.52-1.01-.79-2.2-.79-3.57,0-.66.09-1.32.26-1.98.17-.66.32-1.29.46-1.88l1.88,1.06c-.18.48-.31.93-.38,1.35s-.1.81-.1,1.18c0,1.46.53,2.54,1.59,3.23,1.06.7,2.55,1.04,4.46,1.04,1.59,0,3.24-.09,4.94-.26,1.7-.17,3.34-.26,4.94-.26,2.69,0,4.73.56,6.14,1.69,1.4,1.13,2.1,2.68,2.1,4.67Z"/>
    </g>
    <line class="cls-10" x1="443.8" y1="499.38" x2="443.8" y2="416.87"/>
  </g>
</svg>